<svg xmlns="http://www.w3.org/2000/svg" xmlns:xlink="http://www.w3.org/1999/xlink" width="173.298" height="167.642" viewBox="0 0 173.298 167.642">
  <defs>
    <clipPath id="clip-path">
      <path id="Path_3" data-name="Path 3" d="M125.209,1.3l22.384,151.22a1.512,1.512,0,0,1-.015.529,1.594,1.594,0,0,1-.046.172,1.55,1.55,0,0,1-.15.321,1.382,1.382,0,0,1-.1.144,1.438,1.438,0,0,1-.118.132,1.4,1.4,0,0,1-.133.119,1.444,1.444,0,0,1-.146.1,1.353,1.353,0,0,1-.157.084,1.4,1.4,0,0,1-.165.065,1.434,1.434,0,0,1-.172.044,1.467,1.467,0,0,1-.176.026,1.726,1.726,0,0,1-.178,0,1.474,1.474,0,0,1-.177-.017L1.287,131.932q-.051-.008-.1-.019t-.1-.026q-.05-.015-.1-.033t-.1-.039q-.047-.021-.093-.046t-.089-.052q-.044-.028-.085-.058T.543,131.6q-.04-.033-.077-.069t-.072-.074q-.035-.038-.067-.079t-.061-.083q-.029-.043-.056-.087t-.049-.091q-.023-.046-.043-.094t-.037-.1q-.017-.049-.03-.1t-.023-.1q-.01-.051-.016-.1t-.009-.1q0-.052,0-.1t0-.1q0-.051.012-.1t.019-.1q.011-.05.025-.1t.032-.1q.018-.048.039-.1t.045-.093q.024-.046.051-.09t.057-.086q.03-.042.063-.082t.068-.077L122.6.474q.036-.039.076-.074t.081-.069q.041-.033.085-.063t.089-.057q.046-.027.093-.051t.1-.044q.049-.02.1-.037t.1-.03q.051-.013.1-.023t.105-.016q.053-.006.106-.008t.106,0q.053,0,.106.006t.105.014q.052.009.1.021t.1.028q.051.016.1.035t.1.042q.048.023.094.049t.09.055q.044.029.086.062t.082.068q.04.035.077.073t.072.078q.034.04.066.083t.06.087q.029.045.054.091t.047.095q.022.048.04.1t.034.1q.015.051.026.1t.019.1Z" transform="translate(104.376 213.451) rotate(-135)"/>
    </clipPath>
  </defs>
  <g id="Rectangle-8" transform="matrix(0.799, 0.602, -0.602, 0.799, 64.929, -67.323)">
    <path id="Rectangle" d="M125.209,1.3l22.384,151.22a1.512,1.512,0,0,1-.015.529,1.594,1.594,0,0,1-.046.172,1.55,1.55,0,0,1-.15.321,1.382,1.382,0,0,1-.1.144,1.438,1.438,0,0,1-.118.132,1.4,1.4,0,0,1-.133.119,1.444,1.444,0,0,1-.146.1,1.353,1.353,0,0,1-.157.084,1.4,1.4,0,0,1-.165.065,1.434,1.434,0,0,1-.172.044,1.467,1.467,0,0,1-.176.026,1.726,1.726,0,0,1-.178,0,1.474,1.474,0,0,1-.177-.017L1.287,131.932q-.051-.008-.1-.019t-.1-.026q-.05-.015-.1-.033t-.1-.039q-.047-.021-.093-.046t-.089-.052q-.044-.028-.085-.058T.543,131.6q-.04-.033-.077-.069t-.072-.074q-.035-.038-.067-.079t-.061-.083q-.029-.043-.056-.087t-.049-.091q-.023-.046-.043-.094t-.037-.1q-.017-.049-.03-.1t-.023-.1q-.01-.051-.016-.1t-.009-.1q0-.052,0-.1t0-.1q0-.051.012-.1t.019-.1q.011-.05.025-.1t.032-.1q.018-.048.039-.1t.045-.093q.024-.046.051-.09t.057-.086q.03-.042.063-.082t.068-.077L122.6.474q.036-.039.076-.074t.081-.069q.041-.033.085-.063t.089-.057q.046-.027.093-.051t.1-.044q.049-.02.1-.037t.1-.03q.051-.013.1-.023t.105-.016q.053-.006.106-.008t.106,0q.053,0,.106.006t.105.014q.052.009.1.021t.1.028q.051.016.1.035t.1.042q.048.023.094.049t.09.055q.044.029.086.062t.082.068q.04.035.077.073t.072.078q.034.04.066.083t.06.087q.029.045.054.091t.047.095q.022.048.04.1t.034.1q.015.051.026.1t.019.1Z" transform="translate(105.957 214.363) rotate(-135)" fill="none" fill-rule="evenodd"/>
    <g id="Group_24" data-name="Group 24" transform="translate(1.581 0.912)" clip-path="url(#clip-path)">
      <g id="Group-34" transform="matrix(0.819, -0.574, 0.574, 0.819, -68.785, 77.517)">
        <path id="Rectangle-2" data-name="Rectangle" d="M0,0H3.435V201.067H0Z" transform="translate(0 1.893)" fill="#0fd8f7" fill-rule="evenodd"/>
        <path id="Rectangle-3" data-name="Rectangle" d="M0,0H3.435V201.067H0Z" transform="translate(17.926 2.301)" fill="#0fd8f7" fill-rule="evenodd"/>
        <path id="Rectangle-Copy-3" d="M0,0H3.435V201.067H0Z" transform="translate(32.585 1.646)" fill="#0fd8f7" fill-rule="evenodd"/>
        <path id="Rectangle-Copy-4" d="M0,0H3.435V201.067H0Z" transform="translate(50.511 2.053)" fill="#0fd8f7" fill-rule="evenodd"/>
        <path id="Rectangle-Copy-5" d="M0,0H3.435V201.067H0Z" transform="translate(68.437 2.46)" fill="#0fd8f7" fill-rule="evenodd"/>
        <path id="Rectangle-Copy-6" d="M0,0H3.435V201.067H0Z" transform="translate(83.096 1.806)" fill="#0fd8f7" fill-rule="evenodd"/>
        <path id="Rectangle-Copy-7" d="M0,0H3.435V201.067H0Z" transform="translate(101.022 2.213)" fill="#0fd8f7" fill-rule="evenodd"/>
        <path id="Rectangle-Copy-8" d="M0,0H3.435V201.067H0Z" transform="translate(118.072 0)" fill="#0fd8f7" fill-rule="evenodd"/>
        <path id="Rectangle-Copy-9" d="M0,0H3.435V201.067H0Z" transform="translate(135.014 2.951)" fill="#0fd8f7" fill-rule="evenodd"/>
        <path id="Rectangle-Copy-10" d="M0,0H3.435V201.067H0Z" transform="translate(151.533 2.373)" fill="#0fd8f7" fill-rule="evenodd"/>
        <path id="Rectangle-Copy-11" d="M0,0H3.435V201.067H0Z" transform="translate(168.583 0.16)" fill="#0fd8f7" fill-rule="evenodd"/>
        <path id="Rectangle-Copy-12" d="M0,0H3.435V201.067H0Z" transform="translate(184.118 2.125)" fill="#0fd8f7" fill-rule="evenodd"/>
        <path id="Rectangle-Copy-13" d="M0,0H3.435V201.067H0Z" transform="translate(202.575 0.898)" fill="#0fd8f7" fill-rule="evenodd"/>
        <path id="Rectangle-Copy-14" d="M0,0H3.435V201.067H0Z" transform="translate(218.337 2.409)" fill="#0fd8f7" fill-rule="evenodd"/>
      </g>
    </g>
  </g>
</svg>
