<svg xmlns="http://www.w3.org/2000/svg" xmlns:xlink="http://www.w3.org/1999/xlink" width="335.192" height="335.274" viewBox="0 0 335.192 335.274">
  <defs>
    <clipPath id="clip-path">
      <path id="Path_2" data-name="Path 2" d="M122.648,245.518A122.759,122.759,0,1,0,0,122.759,122.7,122.7,0,0,0,122.648,245.518Z"/>
    </clipPath>
  </defs>
  <g id="Shape-3" transform="translate(122.614 -0.355) rotate(30)">
    <path id="Mask" d="M122.648,245.518A122.759,122.759,0,1,0,0,122.759,122.7,122.7,0,0,0,122.648,245.518Z" transform="translate(0.303 0.235)" fill="none" fill-rule="evenodd"/>
    <g id="Group_20" data-name="Group 20" transform="translate(0.303 0.235)" clip-path="url(#clip-path)">
      <g id="Group-34" transform="translate(-15.98 -21.209)">
        <path id="Rectangle" d="M0,0H3.066V260.863H0Z" transform="translate(0 0)" fill="#f77a56" fill-rule="evenodd"/>
        <path id="Rectangle-2" data-name="Rectangle" d="M0,0H3.066V260.863H0Z" transform="translate(18.397 0)" fill="#f77a56" fill-rule="evenodd"/>
        <path id="Rectangle-Copy-3" d="M0,0H3.066V260.863H0Z" transform="translate(35.261 0)" fill="#f77a56" fill-rule="evenodd"/>
        <path id="Rectangle-Copy-4" d="M0,0H3.066V260.863H0Z" transform="translate(53.659 0)" fill="#f77a56" fill-rule="evenodd"/>
        <path id="Rectangle-Copy-5" d="M0,0H3.066V260.863H0Z" transform="translate(72.056 0)" fill="#f77a56" fill-rule="evenodd"/>
        <path id="Rectangle-Copy-6" d="M0,0H3.066V260.863H0Z" transform="translate(88.92 0)" fill="#f77a56" fill-rule="evenodd"/>
        <path id="Rectangle-Copy-7" d="M0,0H3.066V260.863H0Z" transform="translate(107.317 0)" fill="#f77a56" fill-rule="evenodd"/>
        <path id="Rectangle-Copy-8" d="M0,0H3.066V260.863H0Z" transform="translate(125.714 0)" fill="#f77a56" fill-rule="evenodd"/>
        <path id="Rectangle-Copy-9" d="M0,0H3.066V260.863H0Z" transform="translate(142.579 0)" fill="#f77a56" fill-rule="evenodd"/>
        <path id="Rectangle-Copy-10" d="M0,0H3.066V260.863H0Z" transform="translate(160.976 0)" fill="#f77a56" fill-rule="evenodd"/>
        <path id="Rectangle-Copy-11" d="M0,0H3.066V260.863H0Z" transform="translate(179.373 0)" fill="#f77a56" fill-rule="evenodd"/>
        <path id="Rectangle-Copy-12" d="M0,0H3.066V260.863H0Z" transform="translate(194.704 0)" fill="#f77a56" fill-rule="evenodd"/>
        <path id="Rectangle-Copy-13" d="M0,0H3.066V260.863H0Z" transform="translate(214.634 0)" fill="#f77a56" fill-rule="evenodd"/>
        <path id="Rectangle-Copy-14" d="M0,0H3.066V260.863H0Z" transform="translate(231.499 0)" fill="#f77a56" fill-rule="evenodd"/>
        <path id="Rectangle-Copy-14-2" data-name="Rectangle-Copy-14" d="M0,0H3.066V260.863H0Z" transform="translate(249.896 0)" fill="#f77a56" fill-rule="evenodd"/>
      </g>
    </g>
  </g>
</svg>
